<svg version="1.1" xmlns="http://www.w3.org/2000/svg" xmlns:xlink="http://www.w3.org/1999/xlink" x="0px" y="0px"
	 viewBox="0 0 924 921" style="enable-background:new 0 0 924 921;" xml:space="preserve">
<style type="text/css">
	.st0{fill:none;stroke:#808080;stroke-width:100;stroke-miterlimit:10;}
	.st1{fill:#FF0000;}
</style>
<g id="Kreis">
	<ellipse class="st0" cx="463" cy="460" rx="404.75" ry="404.5"/>
</g>
<g id="car">
	<g>
		<rect x="43.12" y="392" class="st1" width="33.5" height="8.77"/>
		<rect x="57.99" y="394.05" class="st1" width="4.19" height="29.22"/>
		<rect x="49.82" y="453.37" class="st1" width="20.94" height="40.91"/>
		<rect x="45" y="413.63" width="12.56" height="2.92"/>
		<rect x="62.38" y="413.63" width="12.56" height="2.92"/>
		<rect x="36" y="404.27" width="10.05" height="24.55"/>
		<rect x="74.95" y="404.27" width="10.05" height="24.55"/>
		<rect x="36" y="473.83" width="10.05" height="24.55"/>
		<rect x="74.95" y="473.83" width="10.05" height="24.55"/>
		<rect x="57.36" y="476.16" class="st1" width="4.19" height="29.22"/>
		<rect x="41.03" y="505.39" class="st1" width="37.69" height="14.61"/>
		<rect x="53.8" y="423.56" class="st1" width="12.56" height="40.91"/>
		<rect x="36.84" y="484.35" width="12.56" height="2.92"/>
		<rect x="70.34" y="484.35" width="12.56" height="2.92"/>
	</g>
</g>
</svg>
